<?xml version="1.0" encoding="UTF-8" standalone="no"?>
<svg
   xmlns:dc="http://purl.org/dc/elements/1.1/"
   xmlns:cc="http://creativecommons.org/ns#"
   xmlns:rdf="http://www.w3.org/1999/02/22-rdf-syntax-ns#"
   xmlns:svg="http://www.w3.org/2000/svg"
   xmlns="http://www.w3.org/2000/svg"
   viewBox="0 0 273.18668 304.62668"
   height="304.62668"
   width="273.18668"
   xml:space="preserve"
   id="svg2"
   version="1.1"><metadata
     id="metadata8"><rdf:RDF><cc:Work
         rdf:about=""><dc:format>image/svg+xml</dc:format><dc:type
           rdf:resource="http://purl.org/dc/dcmitype/StillImage" /></cc:Work></rdf:RDF></metadata><defs
     id="defs6" /><g
     transform="matrix(1.3333333,0,0,-1.3333333,0,304.62667)"
     id="g10"><g
       transform="scale(0.1)"
       id="g12"><path
         id="path14"
         style="fill:#ffffff;fill-opacity:1;fill-rule:nonzero;stroke:none"
         d="M 53.7422,2259.15 H 270.488 V 737.988 c 0,-119.797 -97.07,-216.867 -216.8747,-216.867 z M 1654.46,1050.5 C 1519.92,1164.58 487.355,2048.69 487.355,2048.69 v 210.46 H 2002.47 V 521.121 c -119.74,0 -214.03,97.07 -214.03,216.867 0,0 12.75,188.153 -133.98,312.512 z m -666.448,12.76 c -112.953,94.11 -500.657,433.69 -500.657,433.69 v 271.09 L 1503.16,896.059 c 42.09,-39.559 68.41,-95.758 68.41,-158.071 0,-119.797 -97.06,-216.867 -216.86,-216.867 -119.75,0 -216.82,97.07 -216.82,216.867 0,0 22.32,181.742 -149.878,325.272 z M 852.617,896.059 c 42.09,-39.559 68.41,-95.758 68.41,-158.071 0,-119.797 -97.062,-216.867 -216.867,-216.867 -119.746,0 -216.805,97.07 -216.805,216.867 V 1206.79 Z M 2006.91,301.051 h 20.71 V 2284.67 H 28.1055 V 301.051 h 23.9062 c 130.7813,0 248.1173,57.687 327.8633,149.019 79.871,-91.332 195.117,-149.019 325.887,-149.019 129.172,0 245.156,56.269 324.898,145.629 79.75,-90.289 195.74,-145.629 325.65,-145.629 129.17,0 244.53,57.871 324.28,147.23 79.74,-90.293 196.34,-147.23 326.32,-147.23" /><path
         id="path16"
         style="fill:#ffffff;fill-opacity:1;fill-rule:nonzero;stroke:none"
         d="m 2043.46,128.43 c -3.83,50.172 -46.11,58.859 -81.66,58.859 -56.64,0 -73.4,-33.461 -73.4,-59.539 0,-66.5508 112.65,-44.1211 112.65,-73.8906 0,-6.711 -5.79,-18.3711 -30.32,-18.3711 -30.07,0 -39.63,11.043 -39.63,26.082 h -49.18 C 1883.28,14.0508 1928.03,0 1969.32,0 c 28.35,0 79.56,9.35938 79.56,61.1992 0,65.5628 -113.7,45.1718 -113.7,73.2698 0,7.652 3.38,17.383 29.39,17.383 25.88,0 30.01,-12.082 32.05,-23.422 h 46.84" /><path
         id="path18"
         style="fill:#ffffff;fill-opacity:1;fill-rule:nonzero;stroke:none"
         d="M 72.3555,230.73 H 24.5313 V 182.602 H 0 V 149.141 H 24.5313 V 41.1719 c 0,-23.1211 7.5195,-38.46096 48.8085,-38.46096 h 6.1641 c 7.5195,0 15.0391,0.30078 22.5471,0.61719 V 38.8281 c -3.4455,-0.3789 -6.8362,-0.6797 -9.9221,-0.6797 -19.4023,0 -19.7734,4.0118 -19.7734,14.3633 v 96.6293 h 29.6955 v 33.461 H 72.3555 v 48.128" /><path
         id="path20"
         style="fill:#ffffff;fill-opacity:1;fill-rule:nonzero;stroke:none"
         d="M 125.168,4.67969 H 172.93 V 97.3086 c 0,19.7934 6.894,42.4614 44.062,42.4614 4.434,0 9.551,0 13.684,-0.61 v 47.449 c -3.078,0.371 -6.164,0.68 -9.25,0.68 -29.024,0 -39.93,-17.379 -49.852,-35.437 h -0.676 v 30.75 h -45.73 V 4.67969" /><path
         id="path22"
         style="fill:#ffffff;fill-opacity:1;fill-rule:nonzero;stroke:none"
         d="m 377.414,93.6797 c 0,-22.75 -6.789,-54.1797 -43.703,-54.1797 -36.856,0 -43.691,31.4297 -43.691,54.1797 0,22.7303 6.835,54.1603 43.691,54.1603 36.914,0 43.703,-31.43 43.703,-54.1603 z m 49.168,0 c 0,64.2113 -43.992,93.6093 -92.871,93.6093 -48.809,0 -92.871,-29.398 -92.871,-93.6093 C 240.84,29.4609 284.902,0 333.711,0 c 48.879,0 92.871,29.4609 92.871,93.6797" /><path
         id="path24"
         style="fill:#ffffff;fill-opacity:1;fill-rule:nonzero;stroke:none"
         d="m 495.488,247.129 h -47.82 V 203.68 h 47.82 z m -47.82,-64.527 V 4.67969 h 47.82 V 182.602 h -47.82" /><path
         id="path26"
         style="fill:#ffffff;fill-opacity:1;fill-rule:nonzero;stroke:none"
         d="m 673.594,128.43 c -3.699,50.172 -46.094,58.859 -81.602,58.859 -56.687,0 -73.398,-33.461 -73.398,-59.539 0,-66.5508 112.656,-44.1211 112.656,-73.8906 0,-6.711 -5.789,-18.3711 -30.379,-18.3711 -30.012,0 -39.562,11.043 -39.562,26.082 h -49.18 C 513.488,14.0508 558.223,0 599.512,0 c 28.351,0 79.57,9.35938 79.57,61.1992 0,65.5628 -113.711,45.1718 -113.711,73.2698 0,7.652 3.457,17.383 29.336,17.383 26.008,0 30.078,-12.082 32.109,-23.422 h 46.778" /><path
         id="path28"
         style="fill:#ffffff;fill-opacity:1;fill-rule:nonzero;stroke:none"
         d="m 721.973,76.6094 h 147.344 v 43.4414 H 721.973 Z" /><path
         id="path30"
         style="fill:#ffffff;fill-opacity:1;fill-rule:nonzero;stroke:none"
         d="m 916.777,4.67969 h 47.825 V 97.3086 c 0,19.7934 6.777,42.4614 43.998,42.4614 4.44,0 9.61,0 13.69,-0.61 v 47.449 c -3.09,0.371 -6.18,0.68 -9.25,0.68 -28.974,0 -39.935,-17.379 -49.798,-35.437 H 962.5 v 30.75 H 916.777 V 4.67969" /><path
         id="path32"
         style="fill:#ffffff;fill-opacity:1;fill-rule:nonzero;stroke:none"
         d="m 1092.97,247.129 h -47.82 V 203.68 h 47.82 z m -47.82,-64.527 V 4.67969 h 47.82 V 182.602 h -47.82" /><path
         id="path34"
         style="fill:#ffffff;fill-opacity:1;fill-rule:nonzero;stroke:none"
         d="m 1297.7,182.602 h -50.84 L 1208.27,51.5195 h -0.73 L 1170,182.602 h -53.24 l 65.2,-177.92231 h 50.23 L 1297.7,182.602" /><path
         id="path36"
         style="fill:#ffffff;fill-opacity:1;fill-rule:nonzero;stroke:none"
         d="m 1369.68,247.129 h -47.82 V 203.68 h 47.82 z m -47.82,-64.527 V 4.67969 h 47.82 V 182.602 h -47.82" /><path
         id="path38"
         style="fill:#ffffff;fill-opacity:1;fill-rule:nonzero;stroke:none"
         d="m 1440.3,111.359 c 2.78,23.422 14.67,37.469 37.23,37.469 15.34,0 34.14,-8.687 36.85,-37.469 z m 72.04,-54.4801 c -3.76,-12.6875 -17.38,-19.4101 -30.68,-19.4101 -38.58,0 -41.36,30.082 -42.71,43.5117 h 124.6 v 8.3203 c 0,81.2812 -49.48,97.9882 -85.35,97.9882 -79.56,0 -87.01,-68.527 -87.01,-89.9804 0,-73.207 39.19,-97.3086 90.47,-97.3086 31.06,0 67.23,14.0508 79.86,56.8789 h -49.18" /><path
         id="path40"
         style="fill:#ffffff;fill-opacity:1;fill-rule:nonzero;stroke:none"
         d="m 1584.64,4.67969 h 47.82 V 97.3086 c 0,19.7934 6.84,42.4614 44.06,42.4614 4.44,0 9.5,0 13.62,-0.61 v 47.449 c -3.08,0.371 -6.1,0.68 -9.18,0.68 -29.08,0 -39.93,-17.379 -49.92,-35.437 h -0.61 v 30.75 h -45.79 V 4.67969" /><path
         id="path42"
         style="fill:#ffffff;fill-opacity:1;fill-rule:nonzero;stroke:none"
         d="m 1745.79,111.359 c 2.72,23.422 14.67,37.469 37.16,37.469 15.35,0 34.14,-8.687 36.91,-37.469 z m 71.98,-54.4801 c -3.7,-12.6875 -17.38,-19.4101 -30.69,-19.4101 -38.57,0 -41.29,30.082 -42.7,43.5117 h 124.6 v 8.3203 c 0,81.2812 -49.48,97.9882 -85.35,97.9882 -79.5,0 -87.02,-68.527 -87.02,-89.9804 0,-73.207 39.26,-97.3086 90.47,-97.3086 31.06,0 67.24,14.0508 79.87,56.8789 h -49.18" /><path
         id="path44"
         style="fill:#ffffff;fill-opacity:1;fill-rule:nonzero;stroke:none"
         d="m 1427.79,203.68 h 95.2813 v 43.4492 H 1427.79 Z" /></g></g></svg>